<svg id="visual" viewBox="0 0 1920 1080" width="1920" height="1080" xmlns="http://www.w3.org/2000/svg" xmlns:xlink="http://www.w3.org/1999/xlink" version="1.1"><path d="M0 77L175 77L175 87L349 87L349 195L524 195L524 217L698 217L698 217L873 217L873 66L1047 66L1047 109L1222 109L1222 206L1396 206L1396 239L1571 239L1571 239L1745 239L1745 152L1920 152L1920 217L1920 0L1920 0L1745 0L1745 0L1571 0L1571 0L1396 0L1396 0L1222 0L1222 0L1047 0L1047 0L873 0L873 0L698 0L698 0L524 0L524 0L349 0L349 0L175 0L175 0L0 0Z" fill="#99fa69"></path><path d="M0 185L175 185L175 228L349 228L349 357L524 357L524 347L698 347L698 357L873 357L873 249L1047 249L1047 217L1222 217L1222 271L1396 271L1396 303L1571 303L1571 303L1745 303L1745 336L1920 336L1920 336L1920 215L1920 150L1745 150L1745 237L1571 237L1571 237L1396 237L1396 204L1222 204L1222 107L1047 107L1047 64L873 64L873 215L698 215L698 215L524 215L524 193L349 193L349 85L175 85L175 75L0 75Z" fill="#6ee172"></path><path d="M0 379L175 379L175 422L349 422L349 584L524 584L524 606L698 606L698 627L873 627L873 422L1047 422L1047 519L1222 519L1222 681L1396 681L1396 714L1571 714L1571 509L1745 509L1745 671L1920 671L1920 681L1920 334L1920 334L1745 334L1745 301L1571 301L1571 301L1396 301L1396 269L1222 269L1222 215L1047 215L1047 247L873 247L873 355L698 355L698 345L524 345L524 355L349 355L349 226L175 226L175 183L0 183Z" fill="#47c877"></path><path d="M0 908L175 908L175 811L349 811L349 887L524 887L524 854L698 854L698 984L873 984L873 930L1047 930L1047 865L1222 865L1222 843L1396 843L1396 865L1571 865L1571 930L1745 930L1745 822L1920 822L1920 887L1920 679L1920 669L1745 669L1745 507L1571 507L1571 712L1396 712L1396 679L1222 679L1222 517L1047 517L1047 420L873 420L873 625L698 625L698 604L524 604L524 582L349 582L349 420L175 420L175 377L0 377Z" fill="#23ae78"></path><path d="M0 1081L175 1081L175 1081L349 1081L349 1081L524 1081L524 1081L698 1081L698 1081L873 1081L873 1081L1047 1081L1047 1081L1222 1081L1222 1081L1396 1081L1396 1081L1571 1081L1571 1081L1745 1081L1745 1081L1920 1081L1920 1081L1920 885L1920 820L1745 820L1745 928L1571 928L1571 863L1396 863L1396 841L1222 841L1222 863L1047 863L1047 928L873 928L873 982L698 982L698 852L524 852L524 885L349 885L349 809L175 809L175 906L0 906Z" fill="#009473"></path></svg>